HIERARCHY
ROOT Hips
{
	OFFSET 0.000000 0.000000 0.000000
	CHANNELS 6 Xposition Yposition Zposition Xrotation Yrotation Zrotation
	JOINT LeftUpLeg_virtual
	{
		OFFSET 0.000000 0.000000 0.000000
		CHANNELS 3 Xrotation Yrotation Zrotation
		JOINT LeftUpLeg
		{
			OFFSET 10.205400 -3.823500 0.155100
			CHANNELS 3 Xrotation Yrotation Zrotation
			JOINT LeftLeg
			{
				OFFSET 0.708757 -12.982077 0.567790
				CHANNELS 3 Xrotation Yrotation Zrotation
				JOINT LeftFoot
				{
					OFFSET -0.708756 -10.717838 -2.184338
					CHANNELS 3 Xrotation Yrotation Zrotation
					JOINT LeftToeBase
					{
						OFFSET 0.108149 -7.191104 7.560241
						CHANNELS 3 Xrotation Yrotation Zrotation
						JOINT LeftToe_End
						{
							OFFSET 0.070230 0.081724 4.490308
							CHANNELS 3 Xrotation Yrotation Zrotation
							End Site
							{
								OFFSET 0 0 0
							}
						}
					}
				}
			}
		}
	}
	JOINT RightUpLeg_virtual
	{
		OFFSET 0.000000 0.000000 0.000000
		CHANNELS 3 Xrotation Yrotation Zrotation
		JOINT RightUpLeg
		{
			OFFSET -10.205400 -3.823500 0.005500
			CHANNELS 3 Xrotation Yrotation Zrotation
			JOINT RightLeg
			{
				OFFSET -0.708756 -12.982134 0.610632
				CHANNELS 3 Xrotation Yrotation Zrotation
				JOINT RightFoot
				{
					OFFSET 0.708754 -10.717769 -1.945823
					CHANNELS 3 Xrotation Yrotation Zrotation
					JOINT RightToeBase
					{
						OFFSET -0.108140 -7.191069 7.372968
						CHANNELS 3 Xrotation Yrotation Zrotation
						JOINT RightToe_End
						{
							OFFSET -0.070227 0.081735 4.479403
							CHANNELS 3 Xrotation Yrotation Zrotation
							End Site
							{
								OFFSET 0 0 0
							}
						}
					}
				}
			}
		}
	}
	JOINT Spine_virtual
	{
		OFFSET 0.000000 0.000000 0.000000
		CHANNELS 3 Xrotation Yrotation Zrotation
		JOINT Spine
		{
			OFFSET 0.000000 6.876099 0.125700
			CHANNELS 3 Xrotation Yrotation Zrotation
			JOINT Spine1
			{
				OFFSET 0.000000 5.730043 0.104720
				CHANNELS 3 Xrotation Yrotation Zrotation
				JOINT Spine1_split
				{
					OFFSET 0.000000 5.730043 0.104720
					CHANNELS 3 Xrotation Yrotation Zrotation
					JOINT Spine2
					{
						OFFSET 0.000000 5.730043 0.104720
						CHANNELS 3 Xrotation Yrotation Zrotation
						JOINT Neck_virtual
						{
							OFFSET 0.000000 0.000000 0.000000
							CHANNELS 3 Xrotation Yrotation Zrotation
							JOINT Neck
							{
								OFFSET 0.000000 10.314075 0.188496
								CHANNELS 3 Xrotation Yrotation Zrotation
								JOINT Head
								{
									OFFSET 0.000000 7.643700 -2.377400
									CHANNELS 3 Xrotation Yrotation Zrotation
									JOINT HeadTop_End
									{
										OFFSET 0.000000 43.788605 -13.619600
										CHANNELS 3 Xrotation Yrotation Zrotation
										End Site
										{
											OFFSET 0 0 0
										}
									}
								}
							}
						}
						JOINT LeftShoulder_virtual
						{
							OFFSET 0.000000 0.000000 0.000000
							CHANNELS 3 Xrotation Yrotation Zrotation
							JOINT LeftShoulder
							{
								OFFSET 2.196100 4.412489 0.087492
								CHANNELS 3 Xrotation Yrotation Zrotation
								JOINT LeftShoulder_split
								{
									OFFSET 2.196100 4.412489 0.087492
									CHANNELS 3 Xrotation Yrotation Zrotation
									JOINT LeftArm
									{
										OFFSET 8.771219 -2.981674 -0.026999
										CHANNELS 3 Xrotation Yrotation Zrotation
										JOINT LeftForeArm
										{
											OFFSET 8.512804 0.000000 -0.000000
											CHANNELS 3 Xrotation Yrotation Zrotation
											JOINT LeftHand
											{
												OFFSET 18.484802 0.000000 -0.000000
												CHANNELS 3 Xrotation Yrotation Zrotation
												End Site
												{
													OFFSET 0 0 0
												}
											}
										}
									}
								}
							}
						}
						JOINT RightShoulder_virtual
						{
							OFFSET 0.000000 0.000000 0.000000
							CHANNELS 3 Xrotation Yrotation Zrotation
							JOINT RightShoulder
							{
								OFFSET -2.196100 4.412496 0.070690
								CHANNELS 3 Xrotation Yrotation Zrotation
								JOINT RightShoulder_split
								{
									OFFSET -2.196100 4.412496 0.070690
									CHANNELS 3 Xrotation Yrotation Zrotation
									JOINT RightArm
									{
										OFFSET -8.771282 -2.981682 -0.094208
										CHANNELS 3 Xrotation Yrotation Zrotation
										JOINT RightForeArm
										{
											OFFSET -8.494598 0.000000 0.000000
											CHANNELS 3 Xrotation Yrotation Zrotation
											JOINT RightHand
											{
												OFFSET -18.483803 0.000000 0.000001
												CHANNELS 3 Xrotation Yrotation Zrotation
												End Site
												{
													OFFSET 0 0 0
												}
											}
										}
									}
								}
							}
						}
					}
				}
			}
		}
	}
}
MOTION
Frames: 8
Frame Time: 0.03333333
-0.505262 32.844833 -0.825609 0.000000 0.000000 0.000000 -0.074751 -5.956309 0.912349 -14.763847 -7.723971 15.886730 33.947485 0.235620 -0.721825 -11.111473 10.424063 -13.747114 -1.565276 0.475894 -1.964862 0.000000 0.000000 0.000000 0.376612 -5.658734 0.961323 -4.270865 -4.405690 -15.459170 25.556700 5.432356 0.925557 -20.363625 -15.060359 13.996484 2.197287 -1.445027 0.359377 0.000000 0.000000 0.000000 0.315346 -3.478300 0.072540 2.782570 -0.743572 0.321630 2.445899 -0.095815 0.284204 1.100234 -0.501232 -0.233471 0.000000 0.000000 0.000000 2.087140 -0.049724 0.183841 -1.382337 0.485547 1.164887 1.474012 1.202321 1.597046 0.000000 0.000000 0.000000 1.633614 0.078931 0.105820 0.508965 9.935975 -11.514436 -1.167680 -1.289668 -0.564607 14.669472 -8.533609 -50.705661 1.506225 -34.763108 1.527141 0.000000 0.000000 0.000000 1.959405 -0.037546 0.226423 1.736666 -7.918182 12.330731 1.384092 1.942420 -2.836073 6.032497 20.567436 61.172465 2.486747 24.117605 1.025406 0.000000 0.000000 0.000000 
-0.591008 32.890934 -0.731249 0.000000 0.000000 0.000000 -0.029926 -5.212463 1.206610 -14.732047 -5.832028 14.907871 32.912810 -0.086994 -0.901457 -11.042040 9.320372 -13.608127 -2.051766 0.370787 -1.401005 0.000000 0.000000 0.000000 0.272617 -5.364807 1.168530 -4.800449 -4.757399 -15.945942 25.239781 5.340519 1.142028 -20.393401 -14.501853 13.233873 3.060866 -1.405990 0.635480 0.000000 0.000000 0.000000 0.474822 -3.208057 0.586617 2.873172 -0.930533 0.227015 2.273317 -0.158193 0.232322 0.886365 -0.649237 -0.225376 0.000000 0.000000 0.000000 2.036592 -0.106617 0.156417 -1.088279 0.555491 0.891205 1.832597 1.356899 1.704969 0.000000 0.000000 0.000000 1.596499 -0.003959 0.061248 0.550119 9.806431 -11.437354 -1.204446 -1.170922 -0.566385 14.370201 -9.357527 -51.084043 1.562404 -35.340150 1.590889 0.000000 0.000000 0.000000 1.935387 -0.108144 0.235166 1.800082 -7.922155 12.334989 1.197162 1.869475 -3.044578 5.828226 20.743831 61.011751 2.444777 25.095372 1.042926 0.000000 0.000000 0.000000 
-0.721480 33.007099 -0.726429 0.000000 0.000000 0.000000 0.016825 -4.625831 1.906340 -13.629234 -3.197372 13.035983 30.253995 -0.216811 -1.210818 -10.745090 7.642084 -13.282875 -3.570050 0.200145 -0.480202 0.000000 0.000000 0.000000 0.341088 -5.052849 1.756352 -6.556290 -5.116449 -16.524183 26.452476 5.174417 1.399198 -20.215179 -13.466830 11.539995 2.217146 -1.241653 0.721579 0.000000 0.000000 0.000000 0.625476 -3.154671 1.342950 3.036769 -1.352698 -0.050999 1.995042 -0.283962 0.098728 0.821518 -0.520649 -0.161467 0.000000 0.000000 0.000000 1.786249 -0.204591 0.060020 -0.805971 0.542675 0.647463 2.686522 1.489294 1.908500 0.000000 0.000000 0.000000 1.388682 -0.131512 -0.011532 0.550626 9.468113 -11.297617 -1.099661 -0.881170 -0.537160 14.318150 -10.510124 -51.501252 1.292380 -36.000964 1.391678 0.000000 0.000000 0.000000 1.738754 -0.245465 0.187538 1.833690 -7.743113 12.363191 1.130937 1.735617 -3.186907 5.737397 21.101511 60.750325 2.302351 26.342469 1.068197 0.000000 0.000000 0.000000 
-0.840418 33.109932 -0.754494 0.000000 0.000000 0.000000 0.037427 -4.385603 2.742499 -11.608322 -0.117062 10.681046 26.541931 0.297320 -1.638331 -10.917846 5.978995 -11.928329 -3.826080 0.049166 0.042517 0.000000 0.000000 0.000000 0.483005 -4.837777 2.504361 -9.382201 -5.429825 -16.866085 29.338726 4.840664 1.623177 -19.881800 -12.189693 8.799349 -0.490249 -1.088919 0.711081 0.000000 0.000000 0.000000 0.743457 -3.628047 2.089223 3.296007 -1.942049 -0.453629 1.650137 -0.455718 -0.061596 0.867028 -0.309482 -0.029222 0.000000 0.000000 0.000000 1.412907 -0.323972 -0.066407 -0.582187 0.461255 0.485596 3.962660 1.663591 2.122689 0.000000 0.000000 0.000000 1.062572 -0.280415 -0.083773 0.508133 8.908586 -11.127352 -0.976883 -0.467721 -0.460248 14.522271 -11.808325 -51.897092 0.792147 -36.535443 0.999551 0.000000 0.000000 0.000000 1.419916 -0.415794 0.109456 1.828261 -7.366132 12.494261 1.122432 1.571767 -3.214249 5.787727 21.593501 60.369576 2.118369 27.519327 1.062036 0.000000 0.000000 0.000000 
-0.934918 33.157883 -0.811054 0.000000 0.000000 0.000000 0.137434 -4.621545 3.420481 -9.204239 2.913927 8.256088 22.545143 1.466236 -2.020754 -11.612349 4.658078 -9.582416 -1.777768 -0.010502 -0.285911 0.000000 0.000000 0.000000 0.683509 -5.141604 3.164273 -12.891741 -5.667233 -16.671004 33.315364 4.447848 1.828794 -19.333708 -10.646091 5.471454 -4.325794 -1.017753 0.536348 0.000000 0.000000 0.000000 0.740875 -4.729086 2.605719 3.646578 -2.559165 -0.847578 1.294551 -0.637231 -0.182185 1.023797 -0.084128 0.038244 0.000000 0.000000 0.000000 1.014359 -0.443983 -0.173177 -0.436989 0.359917 0.417812 5.580340 1.951508 2.238513 0.000000 0.000000 0.000000 0.703372 -0.417616 -0.122827 0.428684 8.172892 -10.931643 -0.981131 -0.098999 -0.445394 15.000999 -13.168843 -52.193218 0.256286 -36.885002 0.580071 0.000000 0.000000 0.000000 1.044391 -0.584336 0.035425 1.774358 -6.793056 12.791413 1.068524 1.379137 -3.183786 5.937428 22.092607 59.878431 1.948648 28.465968 1.006600 0.000000 0.000000 0.000000 
-0.935973 33.134830 -0.825020 0.000000 0.000000 0.000000 0.262903 -5.494707 3.677151 -6.659325 5.219183 6.219184 18.833458 2.674117 -2.163153 -12.531754 3.531112 -7.081640 0.492382 -0.009889 -0.648693 0.000000 0.000000 0.000000 0.798018 -6.019042 3.492511 -16.543741 -5.926000 -15.768931 37.473536 4.306922 2.114141 -18.243150 -8.672628 2.297071 -7.994150 -1.004487 0.187672 0.000000 0.000000 0.000000 0.623509 -6.238207 2.750834 4.050598 -3.058293 -1.119490 0.989058 -0.782376 -0.223951 1.148385 0.092958 0.108631 0.000000 0.000000 0.000000 0.674373 -0.542450 -0.228690 -0.336538 0.285359 0.401813 7.493518 2.418747 2.138067 0.000000 0.000000 0.000000 0.389615 -0.520728 -0.115492 0.341759 7.342079 -10.730805 -1.105228 0.130391 -0.416572 15.736493 -14.566866 -52.306395 -0.105857 -37.057430 0.292976 0.000000 0.000000 0.000000 0.679777 -0.725489 -0.006571 1.678888 -6.052451 13.280600 0.989401 1.223978 -3.101494 6.157460 22.384077 59.359610 1.827631 29.263662 0.893436 0.000000 0.000000 0.000000 
-0.830910 33.085663 -0.887209 0.000000 0.000000 0.000000 0.273099 -6.770055 3.464785 -4.584680 6.737267 4.899930 16.357545 3.431997 -2.134823 -13.340084 2.475716 -5.558653 1.307758 0.029159 -0.692769 0.000000 0.000000 0.000000 0.789610 -7.290743 3.366066 -19.472632 -6.409460 -14.045136 40.494464 4.702956 2.429237 -16.444596 -6.189687 -0.130992 -10.723103 -0.944798 -0.280078 0.000000 0.000000 0.000000 0.473543 -7.916704 2.540154 4.489640 -3.356051 -1.197382 0.756413 -0.867493 -0.189878 1.079855 0.251483 0.208038 0.000000 0.000000 0.000000 0.445840 -0.602379 -0.221907 -0.199966 0.289430 0.400949 9.632997 3.045203 1.782461 0.000000 0.000000 0.000000 0.183395 -0.578598 -0.071314 0.283296 6.542065 -10.556244 -1.274551 0.221013 -0.409223 16.652346 -15.987747 -52.180955 -0.159065 -37.067235 0.228671 0.000000 0.000000 0.000000 0.377672 -0.821234 -0.020173 1.551361 -5.231374 13.873987 0.962556 1.233394 -2.990942 6.467186 22.228041 58.921207 1.762380 30.168672 0.729380 0.000000 0.000000 0.000000 
-0.621922 33.045967 -1.003643 0.000000 0.000000 0.000000 0.047551 -8.167007 2.941246 -3.300798 7.609205 4.080940 15.738477 4.067423 -2.063753 -14.382883 1.739084 -4.764337 0.699876 0.077352 -0.864900 0.000000 0.000000 0.000000 0.696408 -8.840461 2.854049 -20.803242 -7.026461 -11.511553 41.293200 5.677081 2.634017 -14.237249 -3.358742 -1.639125 -12.144029 -0.760789 -0.780751 0.000000 0.000000 0.000000 0.270016 -9.638836 2.095759 4.935152 -3.431226 -1.093363 0.617009 -0.869779 -0.117295 0.983995 0.334203 0.258167 0.000000 0.000000 0.000000 0.334631 -0.618802 -0.163261 0.043918 0.396488 0.372797 11.902097 3.795339 1.200641 0.000000 0.000000 0.000000 0.094770 -0.593631 -0.015000 0.263764 5.885297 -10.415318 -1.413635 0.100171 -0.343439 17.658879 -17.361026 -51.784404 0.072264 -36.883151 0.378518 0.000000 0.000000 0.000000 0.180957 -0.860995 -0.017230 1.418146 -4.396546 14.496841 0.919265 1.438343 -2.926995 6.913208 21.445604 58.676489 1.730097 31.464595 0.561196 0.000000 0.000000 0.000000 
